
<!-- Generator: visioncortex VTracer 0.6.4 -->
<svg version="1.1" xmlns="http://www.w3.org/2000/svg" viewBox="0 0 234 207" preserveAspectRatio="xMidYMid meet">
<path d="M0 0 C0.763 0.66 1.526 1.32 2.312 2 C3.261 2.784 4.21 3.568 5.188 4.375 C7.312 7 7.312 7 7.375 9.375 C6.23 12.204 4.866 14.75 3.289 17.359 C2.228 19.075 2.228 19.075 1.25 21.312 C0.312 23 0.312 23 -2.688 25 C-3.689 26.948 -3.689 26.948 -4.375 29.125 C-4.626 29.849 -4.878 30.574 -5.137 31.32 C-5.318 31.875 -5.5 32.429 -5.688 33 C-4.697 32.505 -4.697 32.505 -3.688 32 C0.173 30.713 3.254 30.862 7.312 31 C6.983 31.99 6.653 32.98 6.312 34 C5.653 34 4.992 34 4.312 34 C4.106 34.763 3.9 35.526 3.688 36.312 C1.858 39.888 -0.026 40.492 -3.688 42 C-5.111 42.588 -5.111 42.588 -6.562 43.188 C-7.264 43.456 -7.965 43.724 -8.688 44 C-8.688 44.99 -8.688 45.98 -8.688 47 C-8.31 46.519 -7.932 46.038 -7.543 45.543 C-5.042 43.463 -3.214 43.502 0 43.312 C0.994 43.247 1.988 43.181 3.012 43.113 C4.151 43.057 4.151 43.057 5.312 43 C5.312 43.66 5.312 44.32 5.312 45 C3.646 46.333 1.979 47.667 0.312 49 C-0.541 50.025 -1.375 51.067 -2.188 52.125 C-4.673 54.983 -6.111 55.978 -9.688 57 C-9.688 57.99 -9.688 58.98 -9.688 60 C-8.574 59.072 -8.574 59.072 -7.438 58.125 C-3.234 54.877 -0.982 53.896 4.312 54 C3.239 55.777 2.153 57.546 1.062 59.312 C0.459 60.299 -0.144 61.285 -0.766 62.301 C-2.579 64.848 -4.031 66.392 -6.688 68 C-7.347 68 -8.008 68 -8.688 68 C-8.777 72.474 -8.545 76.606 -7.688 81 C-7.028 81 -6.367 81 -5.688 81 C-5.44 80.196 -5.192 79.391 -4.938 78.562 C-3.688 76 -3.688 76 -1.75 75.125 C0.312 75 0.312 75 3.312 76 C3.642 75.34 3.972 74.68 4.312 74 C4.916 74.023 5.519 74.046 6.141 74.07 C6.94 74.088 7.739 74.106 8.562 74.125 C9.746 74.16 9.746 74.16 10.953 74.195 C13.538 73.981 15.033 73.177 17.312 72 C20.437 72.188 20.437 72.188 23.312 73 C25.312 76 25.312 76 25 78.5 C24.492 80.349 23.919 82.181 23.312 84 C23.59 86.341 23.918 88.676 24.312 91 C22.332 91.99 22.332 91.99 20.312 93 C20.685 93.632 21.058 94.263 21.441 94.914 C25.672 102.914 25.617 109.154 24.312 118 C24.684 116.783 25.055 115.566 25.438 114.312 C27.138 109.733 29.304 107.729 33.312 105 C33.972 105 34.632 105 35.312 105 C35.646 109.167 35.752 111.348 33.375 114.875 C30.423 119.348 30.312 123.74 30.312 129 C31.395 129.433 31.395 129.433 32.5 129.875 C35.104 130.917 37.708 131.958 40.312 133 C39.999 132.426 39.686 131.853 39.363 131.262 C36.447 124.984 37.156 119.134 39.328 112.75 C40.312 111 40.312 111 43.312 110 C45.501 118.806 46.762 126.92 46.312 136 C53.58 138.572 60.703 140.721 68.312 142 C68.312 142.66 68.312 143.32 68.312 144 C59.442 143.77 51.566 140.975 43.312 138 C41.955 137.519 40.597 137.038 39.238 136.559 C35.925 135.385 32.617 134.197 29.312 133 C28.912 133.494 28.511 133.987 28.098 134.496 C25.061 137.919 22.821 140.384 18.125 140.812 C17.007 140.851 17.007 140.851 15.867 140.891 C12.767 141.023 9.806 141.53 6.75 142.062 C5.201 142.327 5.201 142.327 3.621 142.598 C2.859 142.73 2.097 142.863 1.312 143 C6.141 137.059 10.79 131.434 18.312 129 C16.681 127.717 16.681 127.717 14.312 127 C11.117 127.82 11.117 127.82 7.812 129.312 C0.527 132.362 -4.817 133.107 -12.668 132.961 C-16.797 132.914 -20.638 133.188 -24.688 134 C-19.97 127.951 -14.793 122.223 -7.062 120.371 C-2.796 119.869 1.151 119.752 5.312 121 C1.028 114.812 -2.437 113.107 -9.578 111.02 C-15.805 108.978 -21.036 105.974 -25.25 100.938 C-26.582 98.216 -27.335 95.998 -27.688 93 C-23.545 93.598 -20.506 95.007 -16.875 97.062 C-15.899 97.61 -14.923 98.158 -13.918 98.723 C-12.814 99.355 -12.814 99.355 -11.688 100 C-12.014 99.515 -12.34 99.031 -12.676 98.531 C-20.248 86.916 -20.248 86.916 -19.258 81.766 C-19.07 81.183 -18.881 80.6 -18.688 80 C-17.562 80.957 -16.437 81.916 -15.312 82.875 C-14.686 83.409 -14.06 83.942 -13.414 84.492 C-12.129 85.614 -10.894 86.794 -9.688 88 C-9.832 87.34 -9.976 86.68 -10.125 86 C-10.81 82.344 -11.249 78.694 -11.688 75 C-12.43 74.773 -13.172 74.546 -13.938 74.312 C-17.408 72.656 -18.714 71.312 -20.688 68 C-21.29 65.006 -21.555 62.049 -21.688 59 C-18.688 59 -18.688 59 -16 61.5 C-14.855 62.738 -14.855 62.738 -13.688 64 C-14.696 60.699 -15.45 59.19 -18.188 57 C-21.084 54.683 -21.813 53.579 -22.688 50 C-22.834 46.991 -22.806 44.009 -22.688 41 C-17.828 43.206 -15.608 46.619 -12.688 51 C-12.358 48.36 -12.028 45.72 -11.688 43 C-12.286 42.917 -12.884 42.835 -13.5 42.75 C-16.395 41.757 -17.099 40.596 -18.688 38 C-19.234 35.273 -19.234 35.273 -19.438 32.375 C-19.515 31.413 -19.592 30.452 -19.672 29.461 C-19.688 27 -19.688 27 -18.688 25 C-14.883 26.495 -13.026 28.694 -10.688 32 C-10.358 32.99 -10.028 33.98 -9.688 35 C-8.182 29.525 -9.213 25.92 -11.688 21 C-12.43 20.031 -13.172 19.061 -13.938 18.062 C-16.079 14.315 -16.006 12.215 -15.285 8.047 C-14.391 4.984 -13.346 3.772 -10.688 2 C-4.118 -1.532 -4.118 -1.532 0 0 Z M-2.688 2 C-2.358 2.66 -2.028 3.32 -1.688 4 C-1.028 4 -0.367 4 0.312 4 C0.312 3.34 0.312 2.68 0.312 2 C-0.678 2 -1.668 2 -2.688 2 Z M-8.688 5 C-10.854 8.249 -10.901 8.599 -10.312 12.188 C-10.106 13.446 -9.9 14.704 -9.688 16 C-9.358 16 -9.028 16 -8.688 16 C-8.028 12.37 -7.367 8.74 -6.688 5 C-7.347 5 -8.008 5 -8.688 5 Z M-4.688 5 C-6.839 8.228 -6.888 9.284 -6.688 13 C-4.91 10.334 -3.812 7.972 -2.688 5 C-3.347 5 -4.008 5 -4.688 5 Z M-12.688 6 C-11.688 8 -11.688 8 -11.688 8 Z M-1.688 6 C-4.295 10.845 -4.295 10.845 -3.688 16 C-3.358 15.34 -3.028 14.68 -2.688 14 C-1.697 14 -0.707 14 0.312 14 C0.312 11.69 0.312 9.38 0.312 7 C-0.347 6.67 -1.008 6.34 -1.688 6 Z M-13.688 9 C-13.688 10.98 -13.688 12.96 -13.688 15 C-12.697 15.495 -12.697 15.495 -11.688 16 C-12.017 13.69 -12.347 11.38 -12.688 9 C-13.017 9 -13.347 9 -13.688 9 Z M2.312 9 C2.312 10.65 2.312 12.3 2.312 14 C2.642 14 2.972 14 3.312 14 C3.312 12.35 3.312 10.7 3.312 9 C2.983 9 2.653 9 2.312 9 Z M1.312 14 C2.312 16 2.312 16 2.312 16 Z M-4.688 18 C-3.688 20 -3.688 20 -3.688 20 Z M-5.688 20 C-7.839 23.228 -7.888 24.284 -7.688 28 C-6.698 28.495 -6.698 28.495 -5.688 29 C-4.492 26.163 -4.492 26.163 -3.688 23 C-4.347 22.01 -5.008 21.02 -5.688 20 Z M-17.688 27 C-18.034 32.654 -17.122 36.03 -14.688 41 C-14.027 40.67 -13.367 40.34 -12.688 40 C-13.678 37.36 -14.668 34.72 -15.688 32 C-15.027 32 -14.367 32 -13.688 32 C-14.996 28.878 -14.996 28.878 -17.688 27 Z M-13.688 32 C-12.688 36 -12.688 36 -12.688 36 Z M-5.688 35 C-5.358 35.66 -5.028 36.32 -4.688 37 C-3.038 36.34 -1.388 35.68 0.312 35 C0.642 35.66 0.972 36.32 1.312 37 C1.972 35.68 2.633 34.36 3.312 33 C-0.483 33 -2.317 33.502 -5.688 35 Z M-2.688 37 C-3.678 37.99 -4.668 38.98 -5.688 40 C-3.707 39.34 -1.727 38.68 0.312 38 C-0.678 37.67 -1.668 37.34 -2.688 37 Z M-20.688 44 C-20.688 45.98 -20.688 47.96 -20.688 50 C-20.358 49.34 -20.027 48.68 -19.688 48 C-19.027 48 -18.367 48 -17.688 48 C-18.348 46.68 -19.008 45.36 -19.688 44 C-20.017 44 -20.348 44 -20.688 44 Z M-5.688 46 C-5.811 46.578 -5.935 47.155 -6.062 47.75 C-6.694 50.023 -7.576 51.925 -8.688 54 C-3.811 52.645 -2.202 50.283 0.312 46 C-1.668 46 -3.648 46 -5.688 46 Z M-17.688 48 C-16.688 50 -16.688 50 -16.688 50 Z M-19.688 50 C-19.343 52.473 -19.343 52.473 -18.688 55 C-18.027 55.33 -17.367 55.66 -16.688 56 C-17.348 54.02 -18.008 52.04 -18.688 50 C-19.017 50 -19.348 50 -19.688 50 Z M-16.688 50 C-15.688 52 -15.688 52 -15.688 52 Z M-15.688 52 C-14.688 54 -14.688 54 -14.688 54 Z M-4.688 59 C-5.968 62.088 -5.968 62.088 -6.688 65 C-3.155 63.823 -2.824 63.044 -1 59.938 C-0.563 59.204 -0.126 58.471 0.324 57.715 C0.65 57.149 0.976 56.583 1.312 56 C-1.593 56 -2.585 57.029 -4.688 59 Z M-7.688 60 C-6.688 62 -6.688 62 -6.688 62 Z M-18.688 65 C-18.343 67.473 -18.343 67.473 -17.688 70 C-17.027 70.33 -16.367 70.66 -15.688 71 C-16.348 69.02 -17.008 67.04 -17.688 65 C-18.017 65 -18.348 65 -18.688 65 Z M19.312 74 C19.312 74.99 19.312 75.98 19.312 77 C19.972 76.01 20.632 75.02 21.312 74 C20.653 74 19.993 74 19.312 74 Z M15.312 75 C15.312 78 15.312 78 15.312 78 Z M5.312 76 C3.992 76.99 2.672 77.98 1.312 79 C1.686 84.35 3.308 86.509 7.312 90 C8.901 86.823 8.723 83.46 8.312 80 C6.974 77.54 6.974 77.54 5.312 76 Z M8.312 76 C8.972 77.32 9.633 78.64 10.312 80 C9.983 78.68 9.653 77.36 9.312 76 C8.983 76 8.653 76 8.312 76 Z M-1.688 77 C-0.688 81 -0.688 81 -0.688 81 Z M17.312 77 C18.312 79 18.312 79 18.312 79 Z M22.312 76 C20.316 77.661 19.4 78.573 18.871 81.156 C18.831 81.93 18.791 82.703 18.75 83.5 C18.557 87.004 18.36 87.929 16.312 91 C18.292 91 20.273 91 22.312 91 C22.106 89.762 21.9 88.525 21.688 87.25 C21.233 83.769 21.5 82.058 23.312 79 C22.983 78.01 22.653 77.02 22.312 76 Z M12.312 78 C12.312 80.31 12.312 82.62 12.312 85 C12.642 85 12.972 85 13.312 85 C13.312 82.69 13.312 80.38 13.312 78 C12.983 78 12.653 78 12.312 78 Z M-3.688 81 C-3.358 81.99 -3.028 82.98 -2.688 84 C-2.688 83.01 -2.688 82.02 -2.688 81 C-3.017 81 -3.347 81 -3.688 81 Z M-8.688 83 C-7.688 86 -7.688 86 -7.688 86 Z M16.312 83 C15.187 84.833 15.187 84.833 14.312 87 C14.642 87.99 14.972 88.98 15.312 90 C17.6 88.161 17.6 88.161 17.438 85.375 C17.376 84.199 17.376 84.199 17.312 83 C16.983 83 16.653 83 16.312 83 Z M-5.688 84 C-5.417 86.437 -5.417 86.437 -4.688 89 C-3.203 89.99 -3.203 89.99 -1.688 91 C-2.347 88.69 -3.008 86.38 -3.688 84 C-4.347 84 -5.008 84 -5.688 84 Z M-16.688 85 C-16.29 86.464 -15.869 87.921 -15.438 89.375 C-15.089 90.593 -15.089 90.593 -14.734 91.836 C-13.44 94.511 -12.339 94.817 -9.688 96 C-7.438 99.125 -7.438 99.125 -5.688 102 C-5.358 101.34 -5.028 100.68 -4.688 100 C-7.388 94.265 -10.873 89.127 -15.688 85 C-16.017 85 -16.348 85 -16.688 85 Z M1.312 86 C2.312 88 2.312 88 2.312 88 Z M11.312 86 C11.312 87.65 11.312 89.3 11.312 91 C11.642 91 11.972 91 12.312 91 C12.312 89.35 12.312 87.7 12.312 86 C11.983 86 11.653 86 11.312 86 Z M2.312 88 C2.972 89.32 3.633 90.64 4.312 92 C4.972 91.67 5.633 91.34 6.312 91 C4.992 90.01 3.672 89.02 2.312 88 Z M-5.688 90 C-5.358 91.32 -5.028 92.64 -4.688 94 C-3.698 93.67 -2.707 93.34 -1.688 93 C-3.008 92.01 -4.328 91.02 -5.688 90 Z M10.312 93 C10.312 93.66 10.312 94.32 10.312 95 C10.972 95 11.633 95 12.312 95 C12.312 94.34 12.312 93.68 12.312 93 C11.653 93 10.992 93 10.312 93 Z M14.312 93 C15.303 93.99 16.292 94.98 17.312 96 C17.972 95.01 18.632 94.02 19.312 93 C17.663 93 16.013 93 14.312 93 Z M3.312 98 C4.834 101.803 5.717 103.653 9.312 105.75 C10.303 106.162 11.293 106.575 12.312 107 C13.303 107.66 14.293 108.32 15.312 109 C14.322 105.7 13.332 102.4 12.312 99 C11.983 99.66 11.653 100.32 11.312 101 C10.653 101 9.992 101 9.312 101 C9.312 99.02 9.312 97.04 9.312 95 C7.157 95 5.096 96.902 3.312 98 Z M-24.688 96 C-23.801 99.881 -23.14 101.642 -19.973 104.152 C-18.909 104.741 -17.846 105.331 -16.75 105.938 C-15.689 106.545 -14.628 107.152 -13.535 107.777 C-10.693 109.371 -10.693 109.371 -7.688 108 C-9.101 107.182 -10.518 106.371 -11.938 105.562 C-12.726 105.11 -13.515 104.658 -14.328 104.191 C-16.476 103.107 -18.34 102.469 -20.688 102 C-20.688 101.34 -20.688 100.68 -20.688 100 C-20.089 100.351 -19.491 100.701 -18.875 101.062 C-16.579 102.333 -16.579 102.333 -13.688 101 C-15.143 100.162 -16.602 99.329 -18.062 98.5 C-18.875 98.036 -19.687 97.572 -20.523 97.094 C-22.581 95.85 -22.581 95.85 -24.688 96 Z M-4.688 96 C-4.028 97.32 -3.367 98.64 -2.688 100 C-2.688 98.68 -2.688 97.36 -2.688 96 C-3.347 96 -4.008 96 -4.688 96 Z M-0.688 97 C-0.688 98.32 -0.688 99.64 -0.688 101 C-0.028 101 0.633 101 1.312 101 C1.312 101.66 1.312 102.32 1.312 103 C1.972 103 2.633 103 3.312 103 C2.653 101.02 1.992 99.04 1.312 97 C0.653 97 -0.008 97 -0.688 97 Z M19.312 97 C19.312 100.3 19.312 103.6 19.312 107 C19.642 106.01 19.972 105.02 20.312 104 C20.972 104 21.632 104 22.312 104 C21.738 100.069 21.738 100.069 19.312 97 Z M15.312 98 C14.358 100.17 14.168 101.563 14.914 103.824 C15.671 105.568 16.489 107.286 17.312 109 C18.311 106.005 18.32 104.827 17.875 101.812 C17.689 100.554 17.504 99.296 17.312 98 C16.653 98 15.992 98 15.312 98 Z M-4.688 102 C-3.688 104 -3.688 104 -3.688 104 Z M22.312 104 C23.312 107 23.312 107 23.312 107 Z M2.312 105 C4.365 107.248 5.319 108.002 8.312 109 C9.303 108.34 10.293 107.68 11.312 107 C8.178 105.142 5.938 104.799 2.312 105 Z M29.625 109.125 C27.969 111.058 27.969 111.058 28.625 114.188 C28.852 115.116 29.079 116.044 29.312 117 C31.815 114.062 32.782 111.821 33.312 108 C31.252 107.815 31.252 107.815 29.625 109.125 Z M-0.688 109 C-0.688 109.99 -0.688 110.98 -0.688 112 C-0.028 111.67 0.633 111.34 1.312 111 C0.653 110.34 -0.008 109.68 -0.688 109 Z M6.312 110 C6.074 113.549 6.188 116.608 7.312 120 C10.313 122.735 13.611 124.379 17.312 126 C18.184 126.402 19.055 126.804 19.953 127.219 C22.42 128.297 22.42 128.297 25.312 127 C19.062 121.232 12.823 115.475 6.312 110 Z M11.312 112 C15.254 116.88 19.432 121.058 24.312 125 C24.312 121.208 23.613 120.019 21.312 117 C16.736 113.387 16.736 113.387 11.312 112 Z M41.312 114 C40.983 114.99 40.653 115.98 40.312 117 C40.972 117 41.632 117 42.312 117 C41.983 116.01 41.653 115.02 41.312 114 Z M42.312 118 C43.312 121 43.312 121 43.312 121 Z M39.312 120 C39.972 123.96 40.632 127.92 41.312 132 C41.642 132 41.972 132 42.312 132 C41.983 128.04 41.653 124.08 41.312 120 C40.653 120 39.993 120 39.312 120 Z M-16.688 127.688 C-17.348 128.451 -18.008 129.214 -18.688 130 C-16.437 132.25 -11.744 131.245 -8.707 131.26 C-2.955 131.189 1.99 130.104 7.312 128 C7.312 127.67 7.312 127.34 7.312 127 C5.063 126.973 2.813 126.954 0.562 126.938 C-1.317 126.92 -1.317 126.92 -3.234 126.902 C-5.973 126.98 -8.106 127.172 -10.688 128 C-10.688 127.34 -10.688 126.68 -10.688 126 C-2.273 125.505 -2.273 125.505 6.312 125 C-1.175 120.009 -10.371 121.459 -16.688 127.688 Z M43.312 124 C44.312 128 44.312 128 44.312 128 Z M22.938 132.062 C19.312 133 19.312 133 17.25 132.375 C15.013 131.726 15.013 131.726 12.188 133.75 C9.177 135.864 9.177 135.864 7.312 139 C9.208 139.082 11.104 139.139 13 139.188 C14.584 139.24 14.584 139.24 16.199 139.293 C21.045 138.837 23.502 136.942 26.625 133.312 C27.182 132.549 27.739 131.786 28.312 131 C26.041 130.9 26.041 130.9 22.938 132.062 Z " fill="#000000" transform="translate(45.6875,51)"/>
<path d="M0 0 C1.607 0.561 1.607 0.561 3.246 1.133 C14.863 5.602 24.066 12.454 33 21 C33.688 21.614 34.377 22.227 35.086 22.859 C49.548 36.235 58.967 57.586 60.124 77.091 C61.04 102.822 54.041 125.94 36.75 145.25 C21.452 161.584 -0.16 173.325 -22.871 174.098 C-23.718 174.086 -24.565 174.074 -25.438 174.062 C-26.302 174.053 -27.167 174.044 -28.059 174.035 C-29.02 174.018 -29.02 174.018 -30 174 C-30 173.34 -30 172.68 -30 172 C-28.693 171.853 -27.386 171.706 -26.039 171.555 C-0.925 168.501 20.835 160.574 37.75 140.688 C53.175 120.883 59.403 97.695 56.773 72.856 C54.349 55.271 46.662 39.257 35 26 C34.334 25.238 33.667 24.476 32.98 23.691 C23.028 13.038 10.642 6.606 -3 2 C-3.964 1.66 -4.928 1.319 -5.922 0.969 C-28.399 -5.592 -52.853 -0.935 -73.056 9.888 C-82.727 15.42 -91.448 22.978 -98 32 C-98.66 31.67 -99.32 31.34 -100 31 C-87.146 16.128 -73.678 5.549 -55 -1 C-54.102 -1.32 -53.203 -1.639 -52.277 -1.969 C-35.823 -6.752 -16.069 -5.645 0 0 Z " fill="#000000" transform="translate(152,21)"/>
<path d="M0 0 C1.65 0 3.3 0 5 0 C5.348 0.64 5.696 1.281 6.054 1.94 C7.639 4.857 9.226 7.772 10.812 10.688 C11.36 11.695 11.907 12.702 12.471 13.74 C13.002 14.717 13.534 15.693 14.082 16.699 C14.569 17.595 15.056 18.49 15.558 19.413 C16.985 21.973 18.492 24.487 20 27 C20.33 18.42 20.66 9.84 21 1 C20.34 0.67 19.68 0.34 19 0 C20.98 0 22.96 0 25 0 C24.01 0.495 24.01 0.495 23 1 C23 12.88 23 24.76 23 37 C19.03 35.677 18.792 34.222 16.934 30.539 C16.366 29.428 15.798 28.317 15.213 27.172 C14.334 25.416 14.334 25.416 13.438 23.625 C12.271 21.325 11.103 19.025 9.934 16.727 C9.419 15.701 8.903 14.676 8.373 13.62 C6.994 10.878 6.994 10.878 5 8 C4.67 17.24 4.34 26.48 4 36 C4.66 36.33 5.32 36.66 6 37 C4.02 37 2.04 37 0 37 C0.99 36.505 0.99 36.505 2 36 C2 24.78 2 13.56 2 2 C1.34 2 0.68 2 0 2 C0 1.34 0 0.68 0 0 Z " fill="#000000" transform="translate(122,82)"/>
<path d="M0 0 C3 2 3 2 4 5 C4.147 6.626 4.247 8.256 4.316 9.887 C4.358 10.825 4.4 11.762 4.443 12.729 C4.483 13.705 4.522 14.681 4.562 15.688 C4.606 16.676 4.649 17.664 4.693 18.682 C4.799 21.121 4.901 23.56 5 26 C2.73 26.108 0.459 26.186 -1.812 26.25 C-3.077 26.296 -4.342 26.343 -5.645 26.391 C-9 26 -9 26 -10.922 24.203 C-12.515 20.948 -12.446 18.569 -12 15 C-10.562 12.625 -10.562 12.625 -8 11 C-5.005 10.392 -2.05 10.13 1 10 C0.34 7.36 -0.32 4.72 -1 2 C-2.98 2 -4.96 2 -7 2 C-7.75 5.471 -7.75 5.471 -8 9 C-8.99 9 -9.98 9 -11 9 C-11.356 3.667 -11.356 3.667 -10 1.125 C-6.851 -0.646 -3.53 -0.548 0 0 Z M-7.938 13.062 C-9.596 16.086 -9.301 18.624 -9 22 C-8.01 23.485 -8.01 23.485 -7 25 C-3.458 25.333 -3.458 25.333 0 25 C1.313 23.914 1.313 23.914 1.098 21.277 C1.086 20.175 1.074 19.073 1.062 17.938 C1.053 16.833 1.044 15.728 1.035 14.59 C1.024 13.735 1.012 12.881 1 12 C-3.64 11.629 -3.64 11.629 -7.938 13.062 Z " fill="#000000" transform="translate(160,93)"/>
<path d="M0 0 C0.782 -0.028 1.565 -0.057 2.371 -0.086 C4.562 0.375 4.562 0.375 6.181 2.092 C7.805 4.775 7.912 6.249 7.855 9.359 C7.846 10.294 7.836 11.229 7.826 12.191 C7.801 13.159 7.776 14.128 7.75 15.125 C7.73 16.6 7.73 16.6 7.709 18.105 C7.674 20.529 7.624 22.952 7.562 25.375 C8.222 25.705 8.882 26.035 9.562 26.375 C7.292 26.456 5.021 26.514 2.75 26.562 C0.853 26.615 0.853 26.615 -1.082 26.668 C-4.438 26.375 -4.438 26.375 -6.336 25.078 C-8.146 22.279 -8.265 19.654 -8.438 16.375 C-7.73 14.23 -7.73 14.23 -6.438 12.375 C-4.344 11.547 -4.344 11.547 -1.938 11.125 C-1.143 10.975 -0.349 10.826 0.469 10.672 C2.562 10.375 2.562 10.375 4.562 10.375 C4.378 6.033 4.378 6.033 2.562 2.375 C0.563 2.334 -1.438 2.332 -3.438 2.375 C-4.125 4.866 -4.438 6.754 -4.438 9.375 C-5.427 9.375 -6.418 9.375 -7.438 9.375 C-6.408 0.105 -6.408 0.105 0 0 Z M-4.375 13.438 C-6.033 16.461 -5.739 18.999 -5.438 22.375 C-4.448 23.86 -4.448 23.86 -3.438 25.375 C0.104 25.708 0.104 25.708 3.562 25.375 C4.875 24.289 4.875 24.289 4.66 21.652 C4.649 20.55 4.637 19.448 4.625 18.312 C4.616 17.208 4.607 16.103 4.598 14.965 C4.586 14.11 4.574 13.256 4.562 12.375 C-0.077 12.004 -0.077 12.004 -4.375 13.438 Z " fill="#000000" transform="translate(101.4375,92.625)"/>
<path d="M0 0 C3.488 2.965 3.878 4.806 4.34 9.34 C4.625 20.215 4.625 20.215 1 25 C-2 27 -2 27 -4.938 26.875 C-8.423 25.879 -9.766 24.813 -12 22 C-13.915 16.256 -13.944 9.519 -11.625 3.875 C-8.97 -0.822 -5.073 -0.973 0 0 Z M-8.637 3.09 C-10.282 6.601 -10.4 9.134 -10.375 13 C-10.383 14.196 -10.39 15.392 -10.398 16.625 C-9.973 20.23 -9.22 22.153 -7 25 C-4.5 25.667 -4.5 25.667 -2 25 C0.077 23.393 0.895 22.39 1.582 19.836 C2.131 13.972 2.06 8.59 0 3 C-1.828 0.791 -1.828 0.791 -4.438 0.562 C-7.169 0.733 -7.169 0.733 -8.637 3.09 Z " fill="#000000" transform="translate(88,93)"/>
<path d="M0 0 C0.99 0.66 1.98 1.32 3 2 C3.188 5.125 3.188 5.125 3 8 C2.01 8 1.02 8 0 8 C-0.33 6.02 -0.66 4.04 -1 2 C-3.31 2 -5.62 2 -8 2 C-8.208 4.797 -8.208 4.797 -7 8 C-4.811 9.744 -2.561 11.126 -0.129 12.508 C2.246 14.173 3.046 15.286 4 18 C3.861 21.409 3.584 23.304 1.375 25.938 C-2.113 27.498 -4.364 26.992 -8 26 C-10.496 23.745 -10.959 22.607 -11.188 19.25 C-11.126 18.507 -11.064 17.765 -11 17 C-10.01 16.67 -9.02 16.34 -8 16 C-8.021 16.949 -8.041 17.898 -8.062 18.875 C-8.226 21.907 -8.226 21.907 -7 24 C-5.128 24.843 -5.128 24.843 -3 25 C-2.01 24.34 -1.02 23.68 0 23 C0.662 20.078 0.662 20.078 0 17 C-2.121 14.801 -2.121 14.801 -4.938 13.188 C-5.854 12.604 -6.771 12.02 -7.715 11.418 C-8.469 10.95 -9.223 10.482 -10 10 C-11 9 -11 9 -11.25 6.125 C-11 3 -11 3 -9.688 1.188 C-6.241 -1.238 -3.902 -1.073 0 0 Z " fill="#000000" transform="translate(191,93)"/>
<path d="M0 0 C1.98 0 3.96 0 6 0 C5.01 0.495 5.01 0.495 4 1 C4.024 2.476 4.024 2.476 4.048 3.982 C4.102 7.632 4.136 11.283 4.165 14.934 C4.18 16.514 4.2 18.095 4.226 19.675 C4.263 21.946 4.28 24.217 4.293 26.488 C4.308 27.195 4.324 27.901 4.34 28.629 C4.342 33.52 4.342 33.52 2.616 35.945 C0.484 37.337 -0.966 37.4 -3.5 37.375 C-4.66 37.387 -4.66 37.387 -5.844 37.398 C-8.51 36.906 -9.407 36.169 -11 34 C-11.188 30.812 -11.188 30.812 -11 28 C-10.01 28 -9.02 28 -8 28 C-7.34 30.31 -6.68 32.62 -6 35 C-4.35 35 -2.7 35 -1 35 C1.25 31.385 1.307 28.252 1.414 24.047 C1.433 23.387 1.453 22.726 1.473 22.046 C1.532 19.948 1.579 17.849 1.625 15.75 C1.663 14.323 1.702 12.896 1.742 11.469 C1.838 7.979 1.922 4.49 2 1 C1.34 0.67 0.68 0.34 0 0 Z " fill="#000000" transform="translate(68,82)"/>
<path d="M0 0 C1.32 0 2.64 0 4 0 C4 11.88 4 23.76 4 36 C4.66 36.33 5.32 36.66 6 37 C4.02 37 2.04 37 0 37 C0.99 36.505 0.99 36.505 2 36 C2 24.78 2 13.56 2 2 C1.34 2 0.68 2 0 2 C0 1.34 0 0.68 0 0 Z " fill="#000000" transform="translate(173,82)"/>
<path d="M0 0 C0.99 0.33 1.98 0.66 3 1 C2.67 10.24 2.34 19.48 2 29 C2.66 29.33 3.32 29.66 4 30 C2.02 30 0.04 30 -2 30 C-1.34 29.67 -0.68 29.34 0 29 C0 21.08 0 13.16 0 5 C-0.66 4.67 -1.32 4.34 -2 4 C-1.34 2.68 -0.68 1.36 0 0 Z " fill="#000000" transform="translate(168,89)"/>
</svg>